<?xml version="1.0" standalone="no"?>
<!DOCTYPE svg PUBLIC "-//W3C//DTD SVG 20010904//EN"
 "http://www.w3.org/TR/2001/REC-SVG-20010904/DTD/svg10.dtd">
<svg version="1.0" xmlns="http://www.w3.org/2000/svg"
 width="200.000000pt" height="200.000000pt" viewBox="0 0 200.000000 200.000000"
 preserveAspectRatio="xMidYMid meet">

<g transform="translate(0.000000,200.000000) scale(0.100000,-0.100000)"
fill="#000000" stroke="none">
<path d="M530 1994 c-143 -17 -245 -81 -347 -217 -52 -70 -57 -79 -54 -106 2
-7 -2 -10 -8 -6 -7 4 -8 0 -4 -11 4 -12 3 -15 -5 -10 -8 5 -10 2 -6 -8 3 -9
10 -13 15 -10 16 10 9 -50 -11 -86 l-19 -35 -1 33 c0 18 5 43 11 54 7 13 7 24
1 30 -6 6 -17 -15 -32 -62 -12 -39 -20 -74 -17 -76 3 -3 8 10 12 28 7 31 8 32
16 10 5 -12 6 -28 3 -36 -3 -8 -1 -17 5 -21 7 -3 11 2 11 15 0 12 8 35 17 53
l16 32 8 -28 c8 -31 -17 -101 -33 -91 -4 3 -8 -4 -8 -15 0 -10 -3 -28 -6 -38
-5 -14 -4 -15 4 -4 8 11 11 10 16 -5 3 -10 4 -6 2 10 -4 30 25 91 37 79 13
-12 7 -58 -12 -89 -10 -17 -21 -41 -25 -55 -4 -13 6 1 22 31 l29 54 7 -31 c5
-22 2 -42 -10 -65 -16 -30 -18 -31 -25 -13 -6 13 -7 5 -4 -23 4 -51 15 -69 15
-26 1 27 20 64 34 64 13 0 5 -46 -13 -76 -24 -40 -35 -74 -23 -74 5 0 12 13
15 29 3 16 13 36 22 44 8 9 15 19 15 22 0 4 9 18 19 31 l20 25 3 -23 c4 -26
-20 -71 -33 -62 -5 3 -9 -2 -9 -11 0 -9 -9 -30 -21 -46 -14 -20 -22 -48 -23
-84 -1 -35 1 -50 7 -43 5 9 7 3 4 -14 -2 -15 -1 -25 4 -23 4 3 9 -2 11 -10 2
-13 5 -12 15 4 11 17 10 19 -4 14 -13 -5 -15 -2 -11 15 4 12 3 22 -2 22 -14 0
-10 92 6 114 15 20 16 20 12 -11 -3 -18 -1 -33 4 -33 4 0 8 6 8 13 0 8 9 22
20 32 20 18 21 18 19 -11 -1 -16 1 -36 5 -45 4 -9 -1 -22 -14 -34 -19 -18 -20
-18 -20 1 0 11 6 26 12 34 11 12 10 12 -5 0 -25 -19 -42 -51 -25 -48 8 2 12
-5 11 -17 -1 -17 2 -16 19 8 21 29 38 35 38 14 0 -7 10 -18 22 -26 22 -13 22
-14 2 -30 -23 -20 -29 -42 -9 -35 8 4 13 10 10 14 -3 5 3 15 13 22 10 7 22 20
27 28 7 13 6 13 -7 2 -12 -10 -18 -10 -27 2 -9 10 -8 16 3 25 12 10 21 8 45
-10 17 -12 34 -20 38 -16 3 4 1 7 -6 7 -7 0 -9 5 -5 12 5 7 2 9 -9 5 -8 -3
-20 0 -27 7 -17 21 19 30 41 10 16 -14 45 -19 97 -15 7 1 10 6 7 11 -3 6 0 10
7 10 8 0 6 5 -4 11 -10 5 -18 17 -18 25 0 12 4 13 21 4 11 -6 19 -19 17 -28
-1 -9 1 -23 5 -29 5 -9 3 -11 -6 -7 -11 4 -14 -2 -12 -20 2 -17 -2 -26 -11
-26 -8 0 -14 -4 -14 -10 0 -5 -12 -11 -27 -11 -26 -2 -26 -2 -4 -6 13 -3 28 0
34 6 6 6 19 11 29 11 12 0 15 5 11 16 -4 12 -2 15 8 10 8 -3 22 -9 32 -12 9
-4 17 -13 17 -20 0 -8 -8 -14 -17 -15 -12 0 -13 -2 -5 -6 27 -11 50 32 29 53
-4 4 -7 14 -7 23 0 12 5 10 23 -7 15 -15 18 -25 11 -30 -14 -9 -3 -42 20 -61
9 -7 16 -20 16 -27 0 -8 4 -14 8 -14 8 0 31 -47 66 -135 l16 -40 -6 35 c-4 19
-13 47 -20 62 -17 33 -18 52 -3 42 7 -4 10 -1 7 7 -3 8 3 24 14 35 16 18 17
22 4 27 -10 4 -13 1 -10 -7 9 -23 -16 -29 -32 -10 -14 18 -14 17 -4 -4 18 -38
5 -50 -14 -13 -15 28 -15 35 -4 42 7 5 9 9 4 9 -5 0 -3 7 4 15 7 8 17 12 23 8
5 -3 7 -1 3 5 -3 6 4 31 17 57 25 48 30 48 56 -2 9 -18 9 -28 0 -45 l-12 -22
-14 27 c-7 15 -16 27 -19 27 -2 0 3 -14 11 -30 9 -17 13 -36 9 -42 -4 -6 -3
-8 4 -4 5 3 13 0 16 -6 4 -9 5 -8 4 2 -1 8 2 26 6 39 6 19 10 21 18 10 7 -10
8 -9 4 6 -3 11 -1 27 4 35 9 13 11 13 21 0 9 -12 10 -11 4 5 -8 24 -8 24 -6
55 l2 25 15 -25 c9 -14 12 -16 7 -5 -4 11 -8 70 -9 130 -1 61 -5 121 -9 135
-6 23 -5 23 6 5 7 -10 13 -35 15 -55 1 -19 2 -41 3 -48 1 -7 5 -10 11 -7 7 4
7 -2 1 -18 -5 -14 -7 -34 -4 -46 5 -20 6 -20 19 -4 11 15 12 13 2 -14 -12 -33
-12 -33 -25 -10 -18 33 -16 18 7 -38 12 -27 19 -39 16 -25 -2 14 0 34 4 45 7
17 8 16 9 -10 4 -125 9 -204 15 -213 3 -5 1 -12 -6 -14 -7 -3 -2 -7 10 -10 25
-7 29 4 7 22 -15 13 -21 35 -7 27 4 -3 7 9 7 25 0 19 6 33 15 35 13 4 13 3 0
-6 -12 -8 -7 -11 20 -11 26 0 31 -3 20 -10 -12 -8 -9 -10 13 -10 24 0 26 2 15
13 -7 8 -20 17 -28 20 -8 4 9 6 38 4 28 -1 52 1 52 6 0 12 38 8 43 -5 4 -10 6
-10 6 0 1 6 8 12 17 12 8 0 13 4 10 8 -3 5 -35 5 -73 1 -37 -5 -84 -8 -104 -8
l-36 -1 -12 78 c-19 117 -20 124 -33 116 -8 -5 -9 0 -5 15 3 12 -1 45 -10 73
-8 28 -13 64 -11 80 3 21 1 27 -8 24 -9 -3 -17 8 -24 32 -13 48 -13 53 4 66 9
7 11 18 6 31 -8 19 -9 19 -9 -2 -1 -13 -7 -23 -15 -23 -10 0 -12 7 -8 22 3 12
1 19 -4 15 -6 -3 -10 9 -10 28 0 37 11 44 81 46 23 1 31 4 18 6 -13 2 -23 12
-23 21 0 9 -3 28 -7 41 -6 23 -4 24 27 17 19 -3 37 -11 41 -17 5 -8 8 -8 10 0
3 8 18 7 54 -4 65 -19 62 -20 57 20 -2 19 -3 35 -1 35 23 0 105 -42 110 -56 7
-17 8 -17 8 -2 1 16 5 16 47 -3 26 -11 49 -18 51 -16 2 2 -19 14 -48 25 -38
16 -50 26 -47 39 4 21 20 20 82 -8 29 -12 46 -26 46 -37 0 -13 2 -14 9 -4 12
20 133 -41 125 -63 -8 -21 -16 -19 -84 15 -68 35 -71 35 -64 15 4 -8 10 -13
15 -10 4 3 41 -11 81 -31 40 -20 67 -30 60 -21 -10 12 -10 18 2 30 8 8 12 17
9 21 -3 3 1 8 9 11 9 4 39 -8 68 -26 45 -28 50 -34 36 -44 -8 -7 -13 -14 -11
-17 3 -3 -1 -11 -10 -18 -17 -14 -20 -30 -5 -30 6 0 10 6 10 13 0 6 9 23 19
37 l19 24 24 -19 23 -20 -18 21 c-22 27 -10 39 17 17 20 -17 20 -17 7 0 -20
25 -3 21 38 -10 20 -16 39 -27 44 -25 4 1 7 -6 7 -15 0 -9 -3 -13 -7 -10 -3 4
-12 2 -20 -5 -10 -8 -20 -6 -41 13 l-27 24 23 -26 c26 -30 14 -50 -16 -27 -15
12 -16 11 -4 -4 16 -20 6 -42 -15 -33 -12 4 -13 3 -5 -8 7 -8 8 -18 4 -22 -4
-5 -2 -5 4 -2 11 6 51 -31 73 -68 7 -11 10 -13 8 -5 -3 8 4 24 14 36 15 16 16
21 5 21 -8 0 -14 -5 -13 -10 5 -22 -21 -15 -48 13 -22 23 -26 33 -17 42 9 9
17 7 34 -8 l23 -19 -18 22 c-31 36 -9 49 27 16 l31 -28 -24 27 c-14 16 -21 31
-18 35 12 11 65 7 81 -7 22 -17 20 -36 -1 -19 -15 11 -15 10 1 -8 10 -13 22
-20 27 -18 4 3 10 1 14 -5 4 -6 -7 -11 -27 -11 -27 -1 -29 -3 -8 -6 14 -3 28
-10 32 -17 5 -7 8 -6 8 4 1 11 4 10 16 -5 8 -11 16 -18 18 -15 6 11 32 -26 29
-40 -4 -13 -3 -13 5 -1 8 11 -1 28 -35 68 -49 57 -143 140 -143 127 0 -5 -7 1
-15 12 -21 31 -201 138 -216 128 -7 -4 -10 -3 -6 3 8 12 -189 106 -204 98 -5
-4 -9 -2 -9 3 0 22 -264 112 -442 152 -90 20 -227 31 -288 24z m624 -148 c10
-3 17 -9 14 -11 -7 -7 -128 37 -128 47 0 4 21 -1 48 -11 26 -10 56 -21 66 -25z
m-36 -13 c23 -8 42 -21 42 -29 0 -18 1 -18 -65 7 -34 12 -55 26 -55 36 0 10 5
13 18 8 9 -4 36 -14 60 -22z m-125 1 c20 -5 27 -12 27 -30 0 -22 -3 -24 -27
-18 -58 14 -73 24 -73 45 0 17 4 20 23 15 12 -4 34 -9 50 -12z m327 -65 c0 -5
-26 3 -57 17 -32 14 -64 28 -70 31 -7 3 -13 9 -13 13 0 5 32 -5 70 -22 39 -17
70 -35 70 -39z m-495 9 c4 -16 5 -32 2 -35 -13 -13 -45 10 -54 40 -10 32 -9
33 18 29 21 -3 29 -11 34 -34z m332 -3 c1 0 0 -10 -3 -21 l-6 -21 -54 20 c-44
16 -54 24 -54 43 l0 23 58 -21 c31 -12 58 -22 59 -23z m-398 4 c14 -40 14 -39
-3 -39 -8 0 -19 14 -25 31 -14 40 -14 39 3 39 8 0 19 -14 25 -31z m148 16 c2
-1 6 -16 9 -33 6 -32 6 -32 -27 -26 -42 8 -38 5 -49 43 l-9 32 37 -7 c20 -4
38 -8 39 -9z m340 -15 c45 -21 63 -34 56 -41 -13 -13 -133 38 -133 57 0 19 1
18 77 -16z m-256 -5 c20 -5 28 -14 31 -36 5 -32 1 -34 -54 -18 -33 9 -38 14
-38 40 0 24 4 29 18 25 9 -3 29 -8 43 -11z m363 -7 c-5 -8 -2 -9 10 -5 11 5
15 3 10 -5 -5 -8 -2 -9 10 -5 11 5 15 3 10 -5 -5 -8 -2 -9 10 -5 11 5 15 3 10
-5 -5 -8 -2 -9 10 -5 9 4 15 3 11 -2 -3 -6 3 -14 12 -20 10 -5 15 -12 12 -15
-4 -5 -110 45 -129 61 -2 2 2 8 10 13 20 13 23 12 14 -2z m-1184 -54 c-18 -21
-24 -10 -9 18 8 14 14 18 17 10 2 -7 -2 -19 -8 -28z m1258 -22 c14 -9 19 -19
14 -24 -10 -10 -132 46 -132 60 0 26 45 12 118 -36z m-644 11 c4 -16 9 -36 13
-47 3 -12 1 -17 -8 -14 -14 5 -41 73 -32 82 12 12 21 5 27 -21z m60 5 c11 -41
7 -58 -13 -58 -12 0 -22 9 -26 23 -4 12 -9 30 -11 40 -4 13 1 17 19 17 17 0
27 -7 31 -22z m-678 -82 l-21 -28 -3 26 c-2 14 5 36 15 50 18 24 18 24 24 3 3
-14 -3 -33 -15 -51z m587 52 c9 -31 2 -33 -11 -3 -6 14 -8 25 -3 25 5 0 11
-10 14 -22z m806 -10 c28 -17 49 -33 47 -36 -3 -2 -17 5 -33 15 -15 11 -35 23
-43 27 -14 6 -4 -2 45 -38 11 -8 17 -17 14 -21 -7 -6 -119 61 -119 71 0 4 9 4
20 1 11 -3 18 -1 14 4 -9 15 2 10 55 -23z m-1370 -106 c-7 -14 -20 -27 -26
-30 -19 -6 -16 45 5 73 17 23 17 23 26 3 7 -14 6 -28 -5 -46z m8 -94 l-22 -29
-8 32 c-7 26 -4 36 15 56 l23 24 7 -27 c5 -19 1 -34 -15 -56z m599 -33 c1 -16
6 -41 10 -54 5 -17 4 -22 -4 -17 -16 10 -15 -3 3 -34 8 -14 14 -34 15 -45 0
-16 -4 -13 -20 13 -11 18 -19 47 -19 65 1 17 -2 43 -6 56 -6 17 -5 22 3 17 15
-9 15 -6 -3 37 -20 48 -18 60 2 22 9 -16 18 -43 19 -60z m-566 2 c0 -28 -28
-69 -41 -62 -14 9 -11 48 7 73 18 26 34 21 34 -11z m54 -58 c-10 -11 -21 -19
-26 -19 -15 0 -8 53 10 66 14 11 18 9 25 -8 5 -14 2 -27 -9 -39z m-44 -17 c0
-16 -9 -37 -19 -46 -18 -17 -19 -16 -26 3 -6 20 19 71 36 71 5 0 9 -13 9 -28z
m44 -59 c-16 -12 -19 -11 -26 8 -6 15 -2 25 14 39 23 18 23 18 26 -8 2 -16 -3
-31 -14 -39z m76 3 c0 -16 -26 -46 -41 -46 -14 0 -11 48 4 53 23 10 37 7 37
-7z m384 -21 c9 -13 16 -37 16 -52 l-1 -28 -24 30 c-24 29 -34 75 -16 75 5 0
16 -11 25 -25z m-463 -49 l-21 -20 0 23 c0 14 8 33 18 44 17 19 17 19 20 -3 2
-13 -5 -31 -17 -44z m535 -50 c-4 -50 -25 -142 -30 -135 -31 42 -43 77 -34 99
l10 25 18 -35 c11 -19 19 -31 20 -27 0 4 -7 22 -16 39 -12 23 -14 44 -9 90 l7
60 19 -32 c15 -24 19 -44 15 -84z m-406 59 c0 -20 -5 -25 -25 -25 -28 0 -29 3
-15 31 15 28 40 24 40 -6z m44 19 c27 -10 20 -44 -9 -44 -18 0 -25 5 -25 18 0
29 9 36 34 26z m-116 -55 c-21 -13 -28 -11 -28 11 0 10 8 23 18 29 14 8 18 6
20 -11 2 -11 -2 -25 -10 -29z m-107 -23 l-21 -20 0 23 c0 14 8 33 18 44 17 19
17 19 20 -3 2 -13 -5 -31 -17 -44z m283 58 c9 -3 16 -15 16 -26 0 -29 -44 -20
-48 10 -3 23 4 27 32 16z m236 -64 c0 -36 -16 -40 -38 -10 -16 22 -21 37 -16
57 l7 27 23 -30 c13 -16 24 -36 24 -44z m-77 21 c45 -50 59 -75 51 -95 -9 -22
-19 -20 -38 9 -10 16 -14 35 -11 52 5 24 5 25 -5 10 -11 -18 -13 -18 -35 3
-14 13 -21 29 -18 41 7 27 16 24 56 -20z m-373 11 c0 -19 -18 -42 -32 -42 -12
0 -9 35 4 48 17 17 28 15 28 -6z m284 -14 c8 -13 7 -21 -1 -29 -16 -16 -43 5
-43 33 0 24 28 21 44 -4z m-184 -8 c0 -13 -7 -20 -20 -20 -13 0 -20 7 -20 20
0 13 7 20 20 20 13 0 20 -7 20 -20z m58 -6 c3 -18 -1 -21 -21 -17 -19 4 -23
10 -20 24 7 26 37 20 41 -7z m-108 -4 c0 -11 -2 -20 -4 -20 -2 0 -11 -3 -20
-6 -11 -4 -16 0 -16 14 0 18 11 29 33 31 4 1 7 -8 7 -19z m165 0 c3 -5 2 -15
-1 -24 -8 -21 -44 -2 -44 23 0 14 5 18 20 14 11 -3 23 -9 25 -13z m-225 -45
c-7 -8 -16 -15 -21 -15 -15 0 -10 22 9 43 15 17 17 17 20 3 2 -9 -2 -23 -8
-31z m344 26 c12 -13 15 -27 11 -41 l-7 -22 -24 24 c-16 16 -22 30 -18 41 8
22 17 21 38 -2z m-64 -31 c0 -23 -8 -25 -33 -6 -10 8 -15 20 -11 30 8 22 44 2
44 -24z m-164 19 c3 -6 0 -15 -7 -20 -11 -7 -10 -9 4 -9 9 0 17 -6 18 -12 0
-9 2 -9 5 -2 3 7 14 10 24 7 34 -9 22 -21 -20 -21 -34 -1 -42 3 -55 28 -8 16
-15 31 -15 35 0 10 39 5 46 -6z m38 5 c17 -7 22 -34 7 -34 -10 0 -41 28 -41
36 0 6 16 5 34 -2z m-86 -22 c6 -18 -28 -27 -40 -11 -8 11 -9 11 -5 -3 7 -19
-17 -43 -33 -33 -18 11 -11 25 23 45 34 21 48 21 55 2z m265 -58 c-7 -19 -17
-18 -37 5 -9 10 -14 25 -10 35 6 15 9 15 30 -5 12 -11 20 -27 17 -35z m77 -4
c0 -15 -32 -70 -41 -70 -4 0 -14 11 -23 25 -15 23 -15 27 4 66 l21 40 20 -24
c10 -14 19 -31 19 -37z m-142 6 c-2 -16 -7 -22 -16 -18 -10 3 -11 7 -2 12 8 5
7 9 -4 13 -9 4 -16 13 -16 22 0 13 4 14 20 5 12 -7 19 -19 18 -34z m78 -63
c22 -30 16 -52 -6 -24 -20 23 -26 41 -14 41 4 0 13 -8 20 -17z"/>
<path d="M780 1234 c0 -5 7 -19 15 -30 8 -10 15 -14 15 -8 0 5 -7 19 -15 30
-8 10 -15 14 -15 8z"/>
<path d="M655 1056 c10 -14 19 -26 22 -26 7 0 -17 39 -28 46 -6 3 -3 -5 6 -20z"/>
<path d="M929 1665 c-3 -17 -2 -41 2 -55 7 -24 7 -24 8 -2 1 12 7 22 14 22 9
0 9 2 1 8 -7 4 -14 18 -16 32 -4 24 -4 23 -9 -5z"/>
<path d="M1098 1674 c43 -16 44 -17 40 -55 -2 -22 0 -39 4 -39 5 0 8 16 8 35
0 19 5 35 10 35 17 0 -11 26 -29 26 -9 1 -29 4 -46 8 -17 3 -11 -1 13 -10z"/>
<path d="M1190 1640 c8 -5 20 -10 25 -10 6 0 3 5 -5 10 -8 5 -19 10 -25 10 -5
0 -3 -5 5 -10z"/>
<path d="M1268 1628 c-6 -14 1 -21 29 -33 20 -8 38 -14 40 -11 2 2 -10 9 -26
16 -17 6 -31 19 -33 28 -3 15 -4 15 -10 0z"/>
<path d="M1475 1625 c11 -9 29 -21 40 -26 l20 -10 -20 16 c-11 9 -29 21 -40
26 l-20 10 20 -16z"/>
<path d="M862 1605 c0 -16 2 -22 5 -12 2 9 2 23 0 30 -3 6 -5 -1 -5 -18z"/>
<path d="M988 1623 c7 -3 16 -2 19 1 4 3 -2 6 -13 5 -11 0 -14 -3 -6 -6z"/>
<path d="M812 1600 c0 -14 2 -19 5 -12 2 6 2 18 0 25 -3 6 -5 1 -5 -13z"/>
<path d="M1028 1613 c7 -3 16 -2 19 1 4 3 -2 6 -13 5 -11 0 -14 -3 -6 -6z"/>
<path d="M1259 1568 c-4 -19 -1 -29 9 -33 8 -3 17 -3 20 0 3 3 0 5 -6 5 -6 0
-12 12 -14 28 l-3 27 -6 -27z"/>
<path d="M1396 1575 c-3 -9 -6 -22 -5 -28 0 -7 5 -1 10 12 5 13 8 26 5 28 -2
2 -6 -3 -10 -12z"/>
<path d="M1665 1570 c10 -11 20 -20 23 -20 3 0 -3 9 -13 20 -10 11 -20 20 -23
20 -3 0 3 -9 13 -20z"/>
<path d="M1585 1550 c10 -11 20 -20 23 -20 3 0 -3 9 -13 20 -10 11 -20 20 -23
20 -3 0 3 -9 13 -20z"/>
<path d="M866 1551 c-1 -3 0 -17 5 -31 6 -23 7 -23 8 -3 1 14 9 23 24 25 20 3
19 4 -6 9 -15 4 -29 4 -31 0z"/>
<path d="M937 1530 c3 -11 7 -20 9 -20 2 0 4 9 4 20 0 11 -4 20 -9 20 -5 0 -7
-9 -4 -20z"/>
<path d="M968 1533 c6 -2 18 -2 25 0 6 3 1 5 -13 5 -14 0 -19 -2 -12 -5z"/>
<path d="M1430 1536 c0 -3 9 -10 20 -16 11 -6 20 -8 20 -6 0 3 -9 10 -20 16
-11 6 -20 8 -20 6z"/>
<path d="M1028 1523 c7 -3 16 -2 19 1 4 3 -2 6 -13 5 -11 0 -14 -3 -6 -6z"/>
<path d="M1124 1517 c-8 -9 -7 -16 3 -25 11 -11 13 -8 13 13 0 28 -1 29 -16
12z"/>
<path d="M1251 1504 c0 -11 3 -14 6 -6 3 7 2 16 -1 19 -3 4 -6 -2 -5 -13z"/>
<path d="M1506 1504 c-8 -20 -8 -24 2 -24 4 0 8 9 9 20 2 24 -3 26 -11 4z"/>
<path d="M1560 1516 c0 -2 8 -10 18 -17 15 -13 16 -12 3 4 -13 16 -21 21 -21
13z"/>
<path d="M1740 1495 c13 -14 26 -25 28 -25 3 0 -5 11 -18 25 -13 14 -26 25
-28 25 -3 0 5 -11 18 -25z"/>
<path d="M832 1480 c0 -14 2 -19 5 -12 2 6 2 18 0 25 -3 6 -5 1 -5 -13z"/>
<path d="M941 1484 c0 -11 3 -14 6 -6 3 7 2 16 -1 19 -3 4 -6 -2 -5 -13z"/>
<path d="M1371 1484 c0 -11 3 -14 6 -6 3 7 2 16 -1 19 -3 4 -6 -2 -5 -13z"/>
<path d="M41 1454 c0 -11 3 -14 6 -6 3 7 2 16 -1 19 -3 4 -6 -2 -5 -13z"/>
<path d="M1483 1455 c-7 -8 -9 -16 -4 -19 5 -3 12 1 15 10 8 22 4 25 -11 9z"/>
<path d="M62 1433 c-13 -35 -25 -97 -13 -68 16 38 31 89 27 92 -2 2 -8 -9 -14
-24z"/>
<path d="M941 1444 c0 -11 3 -14 6 -6 3 7 2 16 -1 19 -3 4 -6 -2 -5 -13z"/>
<path d="M875 1440 c-3 -5 -1 -10 4 -10 6 0 11 5 11 10 0 6 -2 10 -4 10 -3 0
-8 -4 -11 -10z"/>
<path d="M1570 1446 c0 -2 8 -10 18 -17 15 -13 16 -12 3 4 -13 16 -21 21 -21
13z"/>
<path d="M1571 1391 c-8 -5 -9 -11 -3 -15 5 -3 12 1 16 9 6 17 6 18 -13 6z"/>
<path d="M1796 1381 c-2 -3 0 -15 5 -26 6 -17 8 -17 8 -2 1 11 9 17 23 17 12
0 18 3 14 7 -8 9 -46 12 -50 4z"/>
<path d="M1460 1376 c0 -2 7 -7 16 -10 8 -3 12 -2 9 4 -6 10 -25 14 -25 6z"/>
<path d="M1640 1376 c0 -2 7 -9 15 -16 9 -7 15 -8 15 -2 0 5 -7 12 -15 16 -8
3 -15 4 -15 2z"/>
<path d="M1766 1372 c-2 -4 -1 -14 5 -22 7 -12 9 -10 9 8 0 23 -5 28 -14 14z"/>
<path d="M1895 1367 c-6 -7 -8 -23 -4 -37 7 -24 7 -24 9 5 l2 30 9 -32 c5 -18
14 -33 19 -33 6 0 10 -6 10 -14 0 -8 5 -18 11 -21 10 -7 -7 39 -32 87 -10 19
-17 23 -24 15z"/>
<path d="M60 1351 c0 -6 4 -13 10 -16 6 -3 7 1 4 9 -7 18 -14 21 -14 7z"/>
<path d="M1712 1331 c-26 -24 -28 -29 -13 -28 11 1 22 10 25 20 2 10 9 16 15
12 6 -3 11 1 11 9 0 21 0 21 -38 -13z"/>
<path d="M1832 1340 c0 -14 2 -19 5 -12 2 6 2 18 0 25 -3 6 -5 1 -5 -13z"/>
<path d="M1862 1330 c0 -14 2 -19 5 -12 2 6 2 18 0 25 -3 6 -5 1 -5 -13z"/>
<path d="M1550 1322 c0 -4 10 -13 23 -21 22 -14 22 -14 3 8 -20 22 -26 25 -26
13z"/>
<path d="M67 1313 c-4 -3 -7 -11 -7 -17 0 -6 5 -5 12 2 6 6 9 14 7 17 -3 3 -9
2 -12 -2z"/>
<path d="M1756 1293 c-6 -14 -5 -15 5 -6 7 7 10 15 7 18 -3 3 -9 -2 -12 -12z"/>
<path d="M1848 1285 c21 -9 31 -19 26 -26 -4 -8 -3 -9 4 -5 7 4 12 11 12 15 0
9 -45 31 -63 31 -7 -1 3 -7 21 -15z"/>
<path d="M1693 1253 c-21 -21 -35 -34 -31 -28 5 5 8 18 7 30 0 13 -2 15 -6 5
-22 -66 -34 -78 -100 -105 -94 -38 -109 -42 -268 -76 -77 -16 -116 -27 -87
-24 37 4 52 2 52 -7 0 -7 5 -6 13 4 15 21 139 41 149 25 4 -6 10 -8 15 -4 4 5
1 12 -6 16 -10 6 -5 11 17 16 18 3 37 3 43 -1 8 -5 9 -3 4 6 -6 10 -1 12 18 8
17 -3 24 -1 20 5 -4 6 0 8 11 4 10 -4 22 -7 27 -7 6 0 7 -5 3 -12 -5 -7 -3 -8
6 -3 10 6 9 11 -4 21 -15 10 -12 14 26 27 53 18 90 20 100 4 4 -7 6 -3 6 10
-2 17 -6 20 -25 12 -13 -5 -25 -4 -28 1 -7 11 12 23 25 15 6 -4 9 -1 8 7 -2 7
5 12 16 11 13 -1 15 2 8 9 -8 8 -5 19 9 40 28 38 18 35 -28 -9z"/>
<path d="M80 1270 c0 -5 5 -10 11 -10 5 0 7 5 4 10 -3 6 -8 10 -11 10 -2 0 -4
-4 -4 -10z"/>
<path d="M1721 1246 c-9 -11 -6 -15 19 -18 22 -3 35 1 48 16 11 14 12 17 2 10
-19 -13 -62 -16 -55 -3 9 14 -1 11 -14 -5z"/>
<path d="M42 1215 c0 -16 2 -22 5 -12 2 9 2 23 0 30 -3 6 -5 -1 -5 -18z"/>
<path d="M80 1230 c0 -5 5 -10 10 -10 6 0 10 5 10 10 0 6 -4 10 -10 10 -5 0
-10 -4 -10 -10z"/>
<path d="M1 1210 c1 -14 5 -38 9 -55 7 -29 8 -29 9 10 0 22 -4 47 -9 55 -8 12
-9 10 -9 -10z"/>
<path d="M1845 1219 c-4 -6 -13 -8 -21 -5 -8 3 -11 0 -7 -10 5 -13 8 -13 24 2
19 17 23 24 15 24 -3 0 -8 -5 -11 -11z"/>
<path d="M1924 1222 c4 -7 2 -21 -5 -30 -12 -15 -11 -15 6 0 16 15 17 20 6 30
-11 11 -13 10 -7 0z"/>
<path d="M107 1203 c-4 -3 -7 -16 -6 -27 0 -19 1 -19 10 3 10 24 8 36 -4 24z"/>
<path d="M1862 1187 c-17 -18 -19 -24 -7 -24 8 0 13 3 10 5 -3 3 2 14 12 24
24 27 10 22 -15 -5z"/>
<path d="M1951 1174 c0 -11 3 -14 6 -6 3 7 2 16 -1 19 -3 4 -6 -2 -5 -13z"/>
<path d="M1729 1178 c-1 -2 -3 -13 -4 -25 -2 -15 2 -20 12 -16 11 4 12 8 3 13
-7 4 -9 13 -6 19 4 6 5 11 2 11 -3 0 -7 -1 -7 -2z"/>
<path d="M62 1140 c0 -14 2 -19 5 -12 2 6 2 18 0 25 -3 6 -5 1 -5 -13z"/>
<path d="M110 1141 c0 -6 4 -13 10 -16 6 -3 7 1 4 9 -7 18 -14 21 -14 7z"/>
<path d="M76 1097 c3 -10 9 -15 12 -12 3 3 0 11 -7 18 -10 9 -11 8 -5 -6z"/>
<path d="M2 1080 c0 -14 2 -19 5 -12 2 6 2 18 0 25 -3 6 -5 1 -5 -13z"/>
<path d="M120 1079 c7 -11 14 -19 16 -16 7 7 -7 37 -17 37 -6 0 -5 -9 1 -21z"/>
<path d="M1622 1080 c7 -11 17 -20 22 -20 5 0 1 9 -9 20 -10 11 -20 20 -22 20
-2 0 2 -9 9 -20z"/>
<path d="M860 1060 c5 -18 12 -35 16 -39 9 -9 -7 53 -17 63 -5 5 -4 -5 1 -24z"/>
<path d="M1456 1072 c-5 -9 29 -52 41 -52 4 0 -3 10 -15 23 -12 13 -19 27 -15
30 3 4 4 7 0 7 -3 0 -8 -4 -11 -8z"/>
<path d="M1985 1057 c-3 -12 -2 -34 3 -47 8 -21 10 -18 9 23 0 52 -4 59 -12
24z"/>
<path d="M430 1058 c0 -5 -6 -8 -14 -8 -7 0 -19 -7 -26 -15 -7 -9 -22 -13 -34
-10 -12 3 -15 2 -8 -1 19 -9 14 -24 -10 -34 -16 -6 -18 -9 -7 -9 9 -1 22 6 29
14 7 8 19 15 26 15 8 0 13 6 12 13 -2 8 9 11 32 10 28 -2 31 0 15 7 -18 8 -17
9 7 9 15 1 29 5 32 10 3 4 -8 8 -24 7 -17 -1 -30 -4 -30 -8z"/>
<path d="M126 1019 c8 -41 35 -102 42 -95 3 3 -1 12 -8 21 -7 8 -10 22 -6 30
4 10 2 14 -6 9 -7 -5 -9 1 -6 19 3 16 0 31 -8 38 -12 9 -13 5 -8 -22z"/>
<path d="M255 1040 c-4 -6 -11 -8 -16 -5 -16 10 -10 -2 9 -16 9 -7 14 -9 10
-5 -4 5 -3 15 3 23 6 7 9 13 6 13 -3 0 -9 -5 -12 -10z"/>
<path d="M1280 1046 c0 -3 9 -10 20 -16 11 -6 20 -8 20 -6 0 3 -9 10 -20 16
-11 6 -20 8 -20 6z"/>
<path d="M11 995 c1 -43 2 -46 10 -24 6 16 6 35 0 50 -8 20 -10 16 -10 -26z"/>
<path d="M92 1015 c0 -16 2 -22 5 -12 2 9 2 23 0 30 -3 6 -5 -1 -5 -18z"/>
<path d="M830 1033 c0 -15 19 -37 26 -31 3 4 -1 14 -10 23 -9 9 -16 13 -16 8z"/>
<path d="M1146 1005 c14 -14 28 -25 31 -25 4 0 -4 11 -17 25 -13 14 -27 25
-31 25 -5 0 3 -11 17 -25z"/>
<path d="M800 995 c0 -5 5 -17 10 -25 5 -8 10 -10 10 -5 0 6 -5 17 -10 25 -5
8 -10 11 -10 5z"/>
<path d="M827 953 c-13 -28 -13 -33 -3 -18 9 11 20 25 26 32 12 15 13 23 2 23
-5 0 -16 -17 -25 -37z"/>
<path d="M101 965 c-1 -26 21 -103 25 -90 2 6 -3 33 -10 60 -8 28 -15 41 -15
30z"/>
<path d="M210 970 c0 -5 5 -10 11 -10 5 0 7 5 4 10 -3 6 -8 10 -11 10 -2 0 -4
-4 -4 -10z"/>
<path d="M530 970 c-13 -8 -12 -10 3 -10 9 0 17 5 17 10 0 12 -1 12 -20 0z"/>
<path d="M1978 950 c-3 -16 -1 -30 4 -30 4 0 8 14 8 30 0 17 -2 30 -4 30 -2 0
-6 -13 -8 -30z"/>
<path d="M251 961 c-8 -5 -9 -11 -3 -15 5 -3 12 1 16 9 6 17 6 18 -13 6z"/>
<path d="M1030 964 c0 -13 18 -39 24 -34 2 3 -2 14 -10 24 -8 11 -14 16 -14
10z"/>
<path d="M31 955 c1 -19 18 -51 18 -35 0 8 -4 22 -9 30 -5 8 -9 11 -9 5z"/>
<path d="M505 930 c-3 -5 -1 -10 4 -10 6 0 11 5 11 10 0 6 -2 10 -4 10 -3 0
-8 -4 -11 -10z"/>
<path d="M81 909 c-1 -29 30 -139 35 -124 2 6 -5 42 -15 80 -11 39 -20 59 -20
44z"/>
<path d="M785 916 c6 -22 -13 -49 -28 -39 -5 3 -7 1 -4 -4 4 -6 0 -16 -8 -23
-12 -10 -15 -10 -15 0 0 8 -3 11 -6 7 -3 -3 -2 -13 4 -22 8 -16 9 -16 15 0 4
9 12 13 18 9 7 -4 9 -3 5 4 -3 6 4 18 16 26 18 13 20 18 9 38 -7 14 -10 16 -6
4z"/>
<path d="M871 915 c1 -19 18 -51 18 -35 0 8 -4 22 -9 30 -5 8 -9 11 -9 5z"/>
<path d="M23 895 c3 -11 11 -50 17 -87 7 -38 16 -68 22 -68 10 0 0 70 -13 85
-5 5 -9 20 -9 35 0 14 -5 32 -11 40 -8 12 -9 11 -6 -5z"/>
<path d="M51 883 c0 -4 4 -17 9 -28 8 -19 9 -19 9 2 1 12 -3 25 -9 28 -5 3
-10 3 -9 -2z"/>
<path d="M850 840 c-6 -11 -8 -20 -6 -20 3 0 10 9 16 20 6 11 8 20 6 20 -3 0
-10 -9 -16 -20z"/>
<path d="M81 777 c-1 -21 25 -87 34 -87 3 0 3 5 -1 11 -4 7 -13 30 -20 53 -7
23 -13 33 -13 23z"/>
<path d="M780 772 c0 -12 3 -12 15 -2 8 7 15 13 15 15 0 1 -7 2 -15 2 -8 0
-15 -7 -15 -15z"/>
<path d="M897 771 c-4 -17 -3 -21 5 -13 5 5 8 16 6 23 -3 8 -7 3 -11 -10z"/>
<path d="M741 751 c-7 -5 -12 -13 -10 -18 2 -6 13 -2 23 8 20 19 12 26 -13 10z"/>
<path d="M866 723 c-6 -14 -5 -15 5 -6 7 7 10 15 7 18 -3 3 -9 -2 -12 -12z"/>
<path d="M1840 703 l-35 -37 34 21 c19 12 36 28 37 37 3 21 5 22 -36 -21z"/>
<path d="M60 721 c0 -5 11 -46 24 -92 73 -250 136 -394 207 -471 34 -37 33
-34 -11 26 -37 50 -49 74 -45 90 4 14 3 17 -3 8 -10 -15 -48 63 -78 161 -16
51 -16 60 -4 68 13 7 12 9 -1 9 -21 0 -37 69 -19 80 8 5 7 9 -4 13 -9 4 -16
15 -16 25 0 27 -28 92 -40 92 -6 0 -10 -4 -10 -9z"/>
<path d="M742 690 c0 -14 2 -19 5 -12 2 6 2 18 0 25 -3 6 -5 1 -5 -13z"/>
<path d="M1749 669 c-19 -18 -26 -29 -16 -25 10 3 24 6 29 6 6 0 8 3 5 7 -4 3
0 15 10 25 26 29 10 21 -28 -13z"/>
<path d="M911 654 c0 -11 3 -14 6 -6 3 7 2 16 -1 19 -3 4 -6 -2 -5 -13z"/>
<path d="M1645 650 c-9 -15 4 -30 23 -29 15 1 14 2 -1 6 -11 3 -16 11 -13 19
6 16 0 19 -9 4z"/>
<path d="M748 538 c-2 -62 -1 -117 2 -121 8 -9 9 2 10 126 2 137 -7 133 -12
-5z"/>
<path d="M1615 620 c-3 -5 1 -10 10 -10 9 0 13 5 10 10 -3 6 -8 10 -10 10 -2
0 -7 -4 -10 -10z"/>
<path d="M1480 590 c0 -5 -7 -10 -17 -10 -9 0 -14 -3 -10 -6 3 -4 14 -3 24 1
10 5 25 7 33 6 13 -2 13 -1 0 8 -19 14 -30 14 -30 1z"/>
<path d="M913 555 c-3 -9 -3 -18 -1 -21 3 -3 8 4 11 16 6 23 -1 27 -10 5z"/>
<path d="M1330 555 c-7 -8 -22 -15 -33 -15 -11 0 -18 -3 -14 -6 11 -11 64 7
64 21 0 19 -2 19 -17 0z"/>
<path d="M1418 563 c7 -3 16 -2 19 1 4 3 -2 6 -13 5 -11 0 -14 -3 -6 -6z"/>
<path d="M1368 553 c7 -3 16 -2 19 1 4 3 -2 6 -13 5 -11 0 -14 -3 -6 -6z"/>
<path d="M1176 515 c-8 -8 -20 -15 -27 -15 -7 0 -10 -2 -7 -5 10 -11 55 6 55
21 0 18 -2 18 -21 -1z"/>
<path d="M1218 513 c7 -3 16 -2 19 1 4 3 -2 6 -13 5 -11 0 -14 -3 -6 -6z"/>
<path d="M1081 479 c-14 -5 -30 -8 -35 -6 -6 3 -17 -2 -24 -10 -12 -12 -9 -13
15 -7 45 11 99 33 83 33 -8 0 -26 -5 -39 -10z"/>
<path d="M901 442 c-8 -16 -8 -23 1 -28 6 -4 14 -2 16 4 2 6 11 8 20 5 13 -4
14 -3 3 5 -7 5 -17 15 -21 22 -6 9 -11 7 -19 -8z"/>
<path d="M970 440 c-8 -5 -10 -10 -5 -10 6 0 17 5 25 10 8 5 11 10 5 10 -5 0
-17 -5 -25 -10z"/>
<path d="M882 347 c-17 -47 -14 -59 4 -18 8 19 13 39 12 43 -2 5 -9 -6 -16
-25z"/>
<path d="M710 328 c0 -7 -21 -33 -47 -57 -27 -24 -39 -39 -28 -34 20 11 27 13
44 13 5 0 12 12 16 27 4 18 9 23 14 14 5 -7 8 -1 9 18 0 17 -1 31 -4 31 -2 0
-4 -6 -4 -12z"/>
<path d="M636 281 c-4 -5 3 -7 14 -4 23 6 26 13 6 13 -8 0 -17 -4 -20 -9z"/>
<path d="M825 230 c-3 -6 1 -7 9 -4 18 7 21 14 7 14 -6 0 -13 -4 -16 -10z"/>
<path d="M619 203 c-13 -16 -12 -17 4 -4 9 7 17 15 17 17 0 8 -8 3 -21 -13z"/>
<path d="M785 160 c-3 -5 -2 -10 4 -10 5 0 13 5 16 10 3 6 2 10 -4 10 -5 0
-13 -4 -16 -10z"/>
<path d="M724 78 l-29 -33 33 29 c30 28 37 36 29 36 -2 0 -16 -15 -33 -32z"/>
<path d="M370 81 c0 -6 4 -13 10 -16 6 -3 7 1 4 9 -7 18 -14 21 -14 7z"/>
<path d="M424 53 c2 -9 8 -18 15 -19 6 -1 7 0 1 3 -5 2 -8 9 -5 13 3 5 1 11
-4 14 -5 4 -8 -2 -7 -11z"/>
<path d="M660 56 c0 -2 7 -7 16 -10 8 -3 12 -2 9 4 -6 10 -25 14 -25 6z"/>
<path d="M470 30 c-9 -6 -10 -10 -3 -10 6 0 15 5 18 10 8 12 4 12 -15 0z"/>
<path d="M498 13 c6 -2 18 -2 25 0 6 3 1 5 -13 5 -14 0 -19 -2 -12 -5z"/>
</g>
</svg>
